<svg id="Camada_1" data-name="Camada 1" xmlns="http://www.w3.org/2000/svg" viewBox="0 0 100 100"><title>calendario</title><path d="M93.83,8H6.17a3.5,3.5,0,0,0-3.49,3.5v77A3.5,3.5,0,0,0,6.17,92H93.83a3.5,3.5,0,0,0,3.49-3.5v-77A3.5,3.5,0,0,0,93.83,8ZM6.17,11.27H93.83a.22.22,0,0,1,.22.23V25.25H6V11.5A.22.22,0,0,1,6.17,11.27ZM93.83,88.73H6.17A.22.22,0,0,1,6,88.5V28.55h88.1v60A.22.22,0,0,1,93.83,88.73Z"/><path d="M89.2,50.07a.83.83,0,0,0,0-1.65H75.71V34.93a.83.83,0,1,0-1.65,0V48.42H58.18V34.93a.83.83,0,1,0-1.65,0V48.42H40.66V34.93a.83.83,0,0,0-.83-.83.82.82,0,0,0-.82.83V48.42H23.13V34.93a.83.83,0,1,0-1.65,0V48.42H10.8a.83.83,0,0,0,0,1.65H21.48V66H10.8a.82.82,0,0,0-.82.82.83.83,0,0,0,.82.83H21.48v9.91a.83.83,0,0,0,1.65,0V67.6H39v9.91a.81.81,0,0,0,.82.82.82.82,0,0,0,.83-.82V67.6H56.53v9.91a.83.83,0,0,0,1.65,0V67.6H74.06v9.91a.83.83,0,0,0,1.65,0V67.6H89.2a.83.83,0,0,0,.82-.83A.82.82,0,0,0,89.2,66H75.71V50.07ZM23.13,66V50.07H39V66Zm17.53,0V50.07H56.53V66Zm33.4,0H58.18V50.07H74.06Z"/></svg>