<svg id="Camada_1" data-name="Camada 1" xmlns="http://www.w3.org/2000/svg" viewBox="0 0 100 100"><defs><style>.cls-1{fill:#000001;}</style></defs><title>chamada_linha</title><path class="cls-1" d="M25.85,5.41a9.35,9.35,0,0,0-6.61-2.7A9.73,9.73,0,0,0,12.43,5.5c-1.19,1-7.06,6.15-9.25,16.83C.12,37.37,7.25,51.9,27.83,72.49c23,23,42.59,24.8,48.06,24.8,1,0,1.7-.07,1.92-.08C88.37,96,92.15,91.29,94.9,87.87c3.46-4.28,3.46-9.91,0-13.36L81,60.59a9.33,9.33,0,0,0-6.61-2.7,9.72,9.72,0,0,0-6.92,2.89l-5.77,5.77-.43-.23A67.36,67.36,0,0,1,45.52,54.83,67.29,67.29,0,0,1,34,39.07l-.24-.44,5.78-5.76a9.58,9.58,0,0,0,.18-13.53ZM36.27,29.57l-6.15,6.12a4.3,4.3,0,0,0-.52,5A71.88,71.88,0,0,0,42.22,58.12,71.68,71.68,0,0,0,59.58,70.71a5,5,0,0,0,2.28.61A4.07,4.07,0,0,0,65,69.86l5.79-5.77a5,5,0,0,1,6.91-.21L91.61,77.8c2.06,2.07,1.26,5.14-.35,7.13-2.74,3.4-5.33,6.62-14,7.63-.07,0-.56,0-1.4,0-5,0-23-1.69-44.76-23.42C11.81,49.86,5,36.55,7.76,23.26c2-9.79,7.34-13.95,7.57-14.12l.28-.22a5,5,0,0,1,6.92-.19L36.46,22.65a4.63,4.63,0,0,1,1.34,3.43,5.27,5.27,0,0,1-1.53,3.49"/></svg>