<svg id="Camada_1" data-name="Camada 1" xmlns="http://www.w3.org/2000/svg" viewBox="0 0 100 100"><defs><style>.cls-1{fill-rule:evenodd;}</style></defs><title>confirmada_senha</title><path d="M85.82,67.56a2.62,2.62,0,0,0-1.89.82s0,0,0,0h0l0,0-.26.26L71.32,81.11l-5.47-6.79a2.75,2.75,0,0,0-2.12-1.07,2.66,2.66,0,0,0-2.31,2.22,2.86,2.86,0,0,0,.8,2.08,0,0,0,0,0,0,0l.11.12,0,0,8.9,10.37s6.71-6.62,16-15.75a2.65,2.65,0,0,0,.63-.62s0,0,0,0a.64.64,0,0,1,.15-.13l0,0a.18.18,0,0,0,0-.14,2.53,2.53,0,0,0,.32-1.23,2.61,2.61,0,0,0-2.61-2.61"/><path d="M75.84,53.44c-.23,0-.46,0-.7,0,.24,0,.47,0,.7,0m-2,44"/><path d="M74.11,99.5A23.29,23.29,0,1,1,97.39,76.21,23.3,23.3,0,0,1,74.11,99.5Zm0-44.37A21.09,21.09,0,1,0,95.2,76.21,21.1,21.1,0,0,0,74.11,55.13Z"/><path class="cls-1" d="M50.83,76.21A23.31,23.31,0,0,1,74.11,52.93a23.74,23.74,0,0,1,3.39.34V35.82a3.06,3.06,0,0,0-3.06-3.06H64.32V22.2h0C63.46,10.09,52.93.5,40,.5s-23.6,9.69-24.32,21.91h0V32.76h-10a3,3,0,0,0-3,3V76.24a3,3,0,0,0,3,3H51.13A23.36,23.36,0,0,1,50.83,76.21ZM19.64,22.41C20.26,12.18,29.12,4.05,40,4.05s19.64,8,20.34,18.15h0V32.76H19.64ZM40.05,62.72h0a1.88,1.88,0,0,1-1.87-1.88V51.09a1.87,1.87,0,0,1,1.87-1.87h0a1.88,1.88,0,0,1,1.88,1.87v9.75A1.88,1.88,0,0,1,40.05,62.72Z"/></svg>