<svg id="Camada_1" data-name="Camada 1" xmlns="http://www.w3.org/2000/svg" viewBox="0 0 100 100"><title>configuracao_linha</title><path d="M50,68.32A18.57,18.57,0,0,0,68.79,50a18.78,18.78,0,0,0-37.55,0A18.57,18.57,0,0,0,50,68.32ZM35,50a15.07,15.07,0,0,1,30.12,0A15.07,15.07,0,0,1,35,50Z"/><path d="M97.25,60.88,87.9,53.77a32.41,32.41,0,0,0,0-7.54l9.36-7.12a4.18,4.18,0,0,0,1-5.43L88.66,17.45a4.36,4.36,0,0,0-5.25-1.86L72.32,19.92a37.62,37.62,0,0,0-6.75-3.81L63.89,4.72a4.2,4.2,0,0,0-4.21-3.6H40.34a4.21,4.21,0,0,0-4.21,3.57L34.45,16.11a38,38,0,0,0-6.74,3.82L16.6,15.59a4.18,4.18,0,0,0-5.21,1.82L1.73,33.66a4.15,4.15,0,0,0,1,5.45l9.36,7.12a31,31,0,0,0,0,7.54L2.76,60.89a4.21,4.21,0,0,0-1,5.43l9.64,16.23a4.37,4.37,0,0,0,5.25,1.86L27.7,80.08a37.7,37.7,0,0,0,6.75,3.81l1.68,11.39a4.22,4.22,0,0,0,4.21,3.6H59.68a4.19,4.19,0,0,0,4.21-3.57l1.68-11.42a39.26,39.26,0,0,0,6.74-3.81l11.12,4.34a4.21,4.21,0,0,0,5.2-1.83l9.7-16.31A4.2,4.2,0,0,0,97.25,60.88ZM5,63.84l11.06-8.4-.14-1.07A34,34,0,0,1,15.62,50a34,34,0,0,1,.32-4.37l.14-1.07L5,36.16a.44.44,0,0,1-.11-.58l9.69-16.31a.52.52,0,0,1,.65-.21l13,5.07.82-.6a35,35,0,0,1,7.77-4.38l1-.4,2-13.55a.5.5,0,0,1,.52-.36H59.68a.49.49,0,0,1,.53.39l2,13.52,1,.39a34.15,34.15,0,0,1,7.74,4.37l.83.62,12.95-5.05a.62.62,0,0,1,.73.23l9.64,16.23a.45.45,0,0,1-.08.61L83.94,44.56l.14,1.07A33.93,33.93,0,0,1,84.4,50a32.51,32.51,0,0,1-.32,4.37l-.14,1.07,11,8.39a.47.47,0,0,1,.13.59l-9.7,16.31a.53.53,0,0,1-.65.22l-13-5.08-.83.6a35,35,0,0,1-7.75,4.38l-1,.4-2,13.56a.49.49,0,0,1-.52.35H40.34a.5.5,0,0,1-.53-.39l-2-13.52-1-.4a33.88,33.88,0,0,1-7.75-4.36l-.83-.62-12.93,5a.62.62,0,0,1-.74-.23L4.94,64.46A.48.48,0,0,1,5,63.84Z"/></svg>