<svg id="Camada_1" data-name="Camada 1" xmlns="http://www.w3.org/2000/svg" viewBox="0 0 100 100"><title>confirmada_senha_linha</title><rect x="39.04" y="50.67" width="3.58" height="13.48"/><path d="M84.34,67.68a2.49,2.49,0,0,0-1.8.79s0,0,0,0h0l0,0c-.09.09-.17.16-.25.25L70.54,80.58l-5.21-6.46a2.56,2.56,0,0,0-2-1,2.54,2.54,0,0,0-2.2,2.11,2.74,2.74,0,0,0,.76,2v0l.12.11v0l8.47,9.87s6.39-6.31,15.26-15a2.44,2.44,0,0,0,.6-.6s0,0,0,0l.14-.12v0s0-.06,0-.13a2.32,2.32,0,0,0,.31-1.17,2.48,2.48,0,0,0-2.49-2.49"/><path d="M75.83,54.36l.64.08V34.23H63.92V23.68h0a23.19,23.19,0,0,0-46.3.2h0V34.23H5.18V80.66H51.45a21.93,21.93,0,1,0,24.38-26.3m-1-.12c-.22,0-.45,0-.68,0,.23,0,.46,0,.68,0M21.4,23.88h0a19.41,19.41,0,0,1,38.75-.2h0V34.23H21.4ZM8.75,77v-39H72.9V54.13h0A21.94,21.94,0,0,0,51,76.07c0,.3,0,.58,0,.88ZM72.89,96.16A20.09,20.09,0,1,1,93,76.07,20.1,20.1,0,0,1,72.89,96.16"/></svg>