<svg id="Camada_1" data-name="Camada 1" xmlns="http://www.w3.org/2000/svg" viewBox="0 0 100 100"><title>copiar_lista</title><path d="M83.41,1.5H29.83A6.94,6.94,0,0,0,22.9,8.42v4.42H16.61a6.93,6.93,0,0,0-6.93,6.92V91.57a6.94,6.94,0,0,0,6.93,6.93H70.19a7,7,0,0,0,6.93-6.93v-4.4h6.29a6.93,6.93,0,0,0,6.91-6.92V8.42A6.93,6.93,0,0,0,83.41,1.5ZM71.57,91.57A1.38,1.38,0,0,1,70.19,93H16.61a1.38,1.38,0,0,1-1.38-1.39V19.76a1.39,1.39,0,0,1,1.38-1.4H22.9V80.25a6.94,6.94,0,0,0,6.93,6.92H71.57Zm5.74-25H36.73a2.77,2.77,0,0,1,0-5.54H77.31a2.77,2.77,0,0,1,0,5.54Zm0-13.18H36.73a2.76,2.76,0,1,1,0-5.52H77.31a2.76,2.76,0,1,1,0,5.52Zm0-13.16H36.73a2.77,2.77,0,1,1,0-5.53H77.31a2.77,2.77,0,1,1,0,5.53Zm0-13.18H36.73a2.77,2.77,0,1,1,0-5.53H77.31a2.77,2.77,0,1,1,0,5.53Z"/></svg>