<svg id="Camada_1" data-name="Camada 1" xmlns="http://www.w3.org/2000/svg" viewBox="0 0 100 100"><title>expandir</title><path d="M84.14,75.23H15.86a4.45,4.45,0,0,1-4.45-4.45V29.22a4.45,4.45,0,0,1,4.45-4.45H84.14a4.45,4.45,0,0,1,4.45,4.45V70.78A4.45,4.45,0,0,1,84.14,75.23ZM15.86,27.73a1.49,1.49,0,0,0-1.48,1.49V70.78a1.49,1.49,0,0,0,1.48,1.49H84.14a1.49,1.49,0,0,0,1.49-1.49V29.22a1.49,1.49,0,0,0-1.49-1.49Z"/><path d="M97.5,27.73h-3V17.34a1.5,1.5,0,0,0-1.48-1.48H82.66v-3H93.05a4.46,4.46,0,0,1,4.45,4.45Z"/><path d="M93.05,87.11H82.66v-3H93.05a1.5,1.5,0,0,0,1.48-1.48V72.27h3V82.66A4.46,4.46,0,0,1,93.05,87.11Z"/><path d="M5.47,27.73h-3V17.34A4.46,4.46,0,0,1,7,12.89H17.34v3H7a1.49,1.49,0,0,0-1.48,1.48Z"/><path d="M17.34,87.11H7A4.46,4.46,0,0,1,2.5,82.66V72.27h3V82.66A1.49,1.49,0,0,0,7,84.14H17.34Z"/></svg>