<svg id="Camada_1" data-name="Camada 1" xmlns="http://www.w3.org/2000/svg" viewBox="0 0 100 100"><defs><style>.cls-1{fill-rule:evenodd;}</style></defs><title>exportar</title><path d="M.16,8.68V92.23a5.89,5.89,0,0,0,5.89,5.89H92.26a5.89,5.89,0,0,0,5.9-5.89V68.63H92.4v24H6.05V8.31H30.14V2.79H6.05A5.89,5.89,0,0,0,.16,8.68"/><path class="cls-1" d="M94.13,47a3.83,3.83,0,0,0,3.81-3.84V6.08a4.86,4.86,0,0,0-1-3,6.39,6.39,0,0,0-3.31-1.17H56.49A3.83,3.83,0,0,0,53.77,3a3.72,3.72,0,0,0-1.09,2.66,3.78,3.78,0,0,0,1.13,2.71,3.68,3.68,0,0,0,2.64,1.11H84.84L34.33,60a3.86,3.86,0,1,0,5.46,5.46L90.3,15V43.19A3.86,3.86,0,0,0,94.13,47"/></svg>