<svg id="Camada_1" data-name="Camada 1" xmlns="http://www.w3.org/2000/svg" viewBox="0 0 100 100"><title>favoritos_linha</title><path d="M99.22,38.37a5.48,5.48,0,0,0-4.37-3.69l-27.64-4-12.34-25a5.52,5.52,0,0,0-9.74,0l-12.35,25-27.67,4a5.42,5.42,0,0,0-3,9.24l20,19.49L17.41,91a5.43,5.43,0,0,0,2.16,5.29,5.31,5.31,0,0,0,3.19,1.05,5.55,5.55,0,0,0,2.52-.62L50,83.66l24.78,13a5.43,5.43,0,0,0,7.8-5.76L77.85,63.43,97.9,43.91A5.4,5.4,0,0,0,99.22,38.37ZM21.91,91.73,27,61.83,5.32,40.68a.85.85,0,0,1-.21-.9.83.83,0,0,1,.69-.58l30-4.36L49.21,7.65A.91.91,0,0,1,50,7.26a.88.88,0,0,1,.78.39L64.19,34.84l30,4.35a.88.88,0,0,1,.5,1.49L73,61.83l5.13,29.88a.88.88,0,0,1-.35.86.93.93,0,0,1-.9.07l-26.61-14L50,78.52,23.17,92.63a.87.87,0,0,1-.92-.06A.87.87,0,0,1,21.91,91.73Z"/></svg>