<svg id="Camada_1" data-name="Camada 1" xmlns="http://www.w3.org/2000/svg" viewBox="0 0 100 100"><title>ferramenta_linha</title><path d="M94,79.23,65.38,50.65,88.7,24.19a13.3,13.3,0,1,0-20-17.59L46.54,31.8l-3.75-3.75A19.13,19.13,0,0,0,18.26,6.84l-3.19,1L27,19.72l-1.4,7.15-7.15,1.4L6.52,16.36l-1,3.18A19.13,19.13,0,0,0,26.76,44.07l4.76,4.76L23.79,57.6a13.26,13.26,0,0,0-2.91,12.06L17.67,73.3,12.94,75l-1.41.52-.73,1.32L4.47,88.43,2.93,91.24l2.4,2.11L10.6,98l2.4,2.12,2.59-1.88L26.27,90.5l1.22-.88.33-1.47L29,83.24l3.21-3.65a12.47,12.47,0,0,0,1.62.1,13.28,13.28,0,0,0,10-4.5l6.62-7.51L77.94,95.25a11.33,11.33,0,1,0,16-16Zm-22.22-70a9.3,9.3,0,1,1,14,12.29L62.55,47.81,49.37,34.63Zm-31,63.3a9.28,9.28,0,0,1-7,3.14,9.45,9.45,0,0,1-3.06-.51l-5.45,6.18-1.35,5.9L13.25,95,8,90.35l6.33-11.56L20,76.71l5.45-6.18a9.3,9.3,0,0,1,1.34-10.28l7.57-8.58L47.54,64.85ZM91.14,92.43a7.36,7.36,0,0,1-10.37,0L28.08,39.73,27,40A15.12,15.12,0,0,1,8.74,24.23l8.37,8.37L29,30.28,31.32,18.4,23,10A15.12,15.12,0,0,1,38.67,28.31l-.22,1.06L91.14,82.06A7.34,7.34,0,0,1,91.14,92.43Z"/></svg>