<svg id="Camada_1" data-name="Camada 1" xmlns="http://www.w3.org/2000/svg" viewBox="0 0 100 100"><title>ferramenta</title><path d="M39.11,73.44l52-52.13A10.07,10.07,0,0,0,76.82,7.09l-52,52.13A10,10,0,0,0,23.05,70.9l-6.14,6.16h0l-6.79,1.36L2.5,90.5l5.39,5.37,12.05-7.65,1.35-6.8,6.14-6.15A10,10,0,0,0,39.11,73.44Z"/><path d="M94.89,80.63,41,26.72a1.25,1.25,0,0,0-.24-.16A17.74,17.74,0,0,0,18.38,4.94l10.7,10.7-1.93,9.88-9.88,1.93L6.57,16.75A17.74,17.74,0,0,0,28.19,39.1a1.2,1.2,0,0,0,.15.24L82.26,93.26A8.93,8.93,0,0,0,94.89,80.63Z"/></svg>