<svg id="Camada_1" data-name="Camada 1" xmlns="http://www.w3.org/2000/svg" viewBox="0 0 100 100"><title>gravar</title><path d="M55.48,78.67H7.54A5.54,5.54,0,0,1,2,73.13V26.87a5.54,5.54,0,0,1,5.54-5.54H55.48A5.55,5.55,0,0,1,61,26.87V73.13A5.55,5.55,0,0,1,55.48,78.67ZM7.54,25a1.85,1.85,0,0,0-1.85,1.85V73.13A1.85,1.85,0,0,0,7.54,75H55.48a1.85,1.85,0,0,0,1.84-1.85V26.87A1.85,1.85,0,0,0,55.48,25Z"/><path d="M94.5,84.73A4.69,4.69,0,0,1,92,84L71.71,71.13a9.23,9.23,0,0,1-4-7.22V36.09a9.23,9.23,0,0,1,4-7.22L92.05,16a3.67,3.67,0,0,1,6,3.28V80.68a3.94,3.94,0,0,1-1.87,3.64A3.29,3.29,0,0,1,94.5,84.73ZM94.28,19l-.26.16L73.68,32a5.68,5.68,0,0,0-2.26,4.1V63.91A5.68,5.68,0,0,0,73.68,68L94,80.84a2,2,0,0,0,.28.15c0-.07,0-.18,0-.31V19.32A1.39,1.39,0,0,0,94.28,19Z"/><circle cx="31.51" cy="50" r="12.01"/></svg>