<svg id="Camada_1" data-name="Camada 1" xmlns="http://www.w3.org/2000/svg" viewBox="0 0 100 100"><title>home_linha</title><path d="M97.73,54.19,52.09,5.09a3,3,0,0,0-4.18,0L2.27,54.19A2.86,2.86,0,0,0,4.35,59h9.14V92.93a2.85,2.85,0,0,0,2.86,2.85H83.66a2.86,2.86,0,0,0,2.86-2.85V59h9.13a2.86,2.86,0,0,0,2.08-4.81M57.93,92a0,0,0,0,1,0,0L42.07,92l0-24.29,15.83,0ZM85.6,55.22a2.85,2.85,0,0,0-2.85,2.86V92h-21s0,0,0,0V67.72a3.82,3.82,0,0,0-3.82-3.81H42.1a3.82,3.82,0,0,0-3.81,3.81V92h-21V58.08a2.87,2.87,0,0,0-2.87-2.86H6.47L50,8.38,93.54,55.22ZM95,56.76Z"/></svg>