<svg id="Camada_1" data-name="Camada 1" xmlns="http://www.w3.org/2000/svg" viewBox="0 0 100 100"><title>lista_linha</title><path d="M76.75,22.06H37a2.71,2.71,0,1,0,0,5.41H76.75a2.71,2.71,0,1,0,0-5.41"/><path d="M76.75,35H37a2.71,2.71,0,1,0,0,5.41H76.75a2.71,2.71,0,1,0,0-5.41"/><path d="M76.75,47.86H37a2.71,2.71,0,1,0,0,5.42H76.75a2.71,2.71,0,1,0,0-5.42"/><path d="M76.75,60.76H37a2.71,2.71,0,1,0,0,5.42H76.75a2.71,2.71,0,0,0,0-5.42"/><path d="M82.72,2.5H30.25a6.79,6.79,0,0,0-6.79,6.77V13.6H17.3a6.78,6.78,0,0,0-6.79,6.77V90.72A6.79,6.79,0,0,0,17.3,97.5H69.77a6.79,6.79,0,0,0,6.79-6.78V86.41h6.16a6.78,6.78,0,0,0,6.77-6.78V9.27A6.78,6.78,0,0,0,82.72,2.5M71.13,90.72a1.36,1.36,0,0,1-1.36,1.37H17.3a1.36,1.36,0,0,1-1.36-1.37V20.37A1.36,1.36,0,0,1,17.3,19h6.16V79.63a6.79,6.79,0,0,0,6.79,6.78H71.13ZM84.07,79.63A1.37,1.37,0,0,1,82.72,81H30.25a1.38,1.38,0,0,1-1.38-1.36V9.27a1.38,1.38,0,0,1,1.38-1.36H82.72a1.37,1.37,0,0,1,1.35,1.36Z"/></svg>