<svg id="Camada_1" data-name="Camada 1" xmlns="http://www.w3.org/2000/svg" viewBox="0 0 100 100"><title>logout_fundo</title><path d="M50,2.5A47.5,47.5,0,1,0,97.5,50,47.5,47.5,0,0,0,50,2.5ZM65.62,66.8a2.48,2.48,0,0,1-2.48,2.47h-17V78.5a1.09,1.09,0,0,1-.49,1,1.67,1.67,0,0,1-1.55,0L26.89,69.59c-1.71-.78-2.47-1.64-2.47-2.79v-44a2.48,2.48,0,0,1,2.47-2.47H63.14a2.48,2.48,0,0,1,2.48,2.47V38.63H63.2v-16H31.13l2.1,1.2c.09.05,9.15,5.22,11.92,7.24a2.52,2.52,0,0,1,1,2V67h17V54.26h2.42ZM81.7,46.61a.78.78,0,0,0,0,.14,1.2,1.2,0,0,1-.23.4.75.75,0,0,0-.07.12l-7,7a1.09,1.09,0,1,1-1.54-1.54L78,47.56H60.08a1.1,1.1,0,1,1,0-2.2H78l-5.64-5.64a1.07,1.07,0,0,1-.31-.76,1.11,1.11,0,0,1,.31-.77,1.07,1.07,0,0,1,.77-.32,1.12,1.12,0,0,1,.77.32l7.41,7.41.16.13A1.08,1.08,0,0,1,81.7,46.61Z"/></svg>