<svg id="Camada_1" data-name="Camada 1" xmlns="http://www.w3.org/2000/svg" viewBox="0 0 100 100"><title>logout_linhas</title><path d="M95.87,43.1l-.25-.2-12-12a1.75,1.75,0,0,0-1.25-.52,1.6,1.6,0,0,0-1.23.51,1.72,1.72,0,0,0-.51,1.25,1.68,1.68,0,0,0,.5,1.22l9.11,9.11H61.32a1.8,1.8,0,0,0-1.78,1.79,1.78,1.78,0,0,0,1.78,1.76H90.27l-8.38,8.4a1.75,1.75,0,1,0,2.48,2.48L95.72,45.59l.12-.21a1.52,1.52,0,0,0,.36-.63c0-.07,0-.14,0-.23a1.69,1.69,0,0,0-.37-1.42"/><path d="M66.37,77.39H38.9V22.56a4.08,4.08,0,0,0-1.68-3.19C32.74,16.11,18.11,7.75,18,7.68L14.58,5.74H66.37v25.9h3.91V6a4,4,0,0,0-4-4H7.73a4,4,0,0,0-4,4V77.13c0,1.84,1.23,3.24,4,4.5l27.88,16a2.59,2.59,0,0,0,2.49,0A1.78,1.78,0,0,0,38.9,96V81.13H66.28a4,4,0,0,0,4-4V56.87H66.37ZM6.8,77V5.66L34.67,22.35l0,70.23Z"/></svg>