<svg id="Camada_1" data-name="Camada 1" xmlns="http://www.w3.org/2000/svg" viewBox="0 0 100 100"><title>logout_linha2</title><path d="M50,97.5A47.5,47.5,0,1,1,97.5,50,47.56,47.56,0,0,1,50,97.5Zm0-92A44.53,44.53,0,1,0,94.53,50,44.59,44.59,0,0,0,50,5.47Z"/><path d="M77.52,48.83l-.16-.12-7.17-7.18a1.08,1.08,0,0,0-.76-.31,1,1,0,0,0-.73.31,1,1,0,0,0-.31.75,1,1,0,0,0,.3.73l5.47,5.47H56.79a1.07,1.07,0,1,0,0,2.13H74.16l-5,5a1,1,0,0,0,0,1.48,1.06,1.06,0,0,0,1.49,0l6.81-6.8a.56.56,0,0,1,.07-.13.86.86,0,0,0,.21-.38l0-.14a1,1,0,0,0-.22-.85"/><path d="M59.82,69.4H43.34V36.51a2.44,2.44,0,0,0-1-1.92c-2.68-2-11.46-7-11.54-7l-2-1.16H59.82V42h2.34V26.57a2.39,2.39,0,0,0-2.4-2.39H24.65a2.4,2.4,0,0,0-2.4,2.39V69.25c0,1.1.74,1.93,2.4,2.7l16.72,9.62a1.57,1.57,0,0,0,1.49,0,1.07,1.07,0,0,0,.48-1V71.64H59.76a2.4,2.4,0,0,0,2.4-2.39V57.09H59.82Zm-35.73-.24V26.37l16.71,10,0,42.12Z"/></svg>