<svg id="Camada_1" data-name="Camada 1" xmlns="http://www.w3.org/2000/svg" viewBox="0 0 100 100"><title>mudo_linha</title><path d="M89.54,74.31,78.34,66.5l.35-.76a30.64,30.64,0,0,0,2.89-13.08V50.74a2.53,2.53,0,0,0-.78-1.84,2.63,2.63,0,0,0-4.47,1.84v1.92a26.27,26.27,0,0,1-1.81,9.66l-.46,1.18-5.35-3.73.24-.71a19.9,19.9,0,0,0,1.1-6.4v-29a19.51,19.51,0,0,0-5.9-14.22,20.06,20.06,0,0,0-28.44,0,19.45,19.45,0,0,0-5.92,14.22v9L13,20.93a2.58,2.58,0,0,0-3.64,2.31A2.51,2.51,0,0,0,10.11,25l.09.09L29.79,38.75V52.66A20.18,20.18,0,0,0,49.92,72.78a19.51,19.51,0,0,0,14.23-5.9,17.7,17.7,0,0,0,1.17-1.38c.13-.18.27-.35.41-.53l.59-.72,5.12,3.57-1,1.3a21.5,21.5,0,0,1-1.85,2.19,25.6,25.6,0,0,1-18.66,7.75,25.58,25.58,0,0,1-18.65-7.75,25.53,25.53,0,0,1-7.75-18.65V50.6A2.68,2.68,0,0,0,20.89,48a2.68,2.68,0,0,0-2.62,2.63v2.06a30.64,30.64,0,0,0,8.1,21.13,30.82,30.82,0,0,0,20,10.3l.89.1V96.5h5.26V84.19l.89-.1a30.77,30.77,0,0,0,20-10.3,13.82,13.82,0,0,0,1.08-1.41c.2-.27.39-.54.59-.8l.58-.77,10.44,7.31a2.59,2.59,0,0,0,4.45-1.75,2.5,2.5,0,0,0-.84-1.85ZM62.39,62.81l-.28.35a10.08,10.08,0,0,1-.77.91,15.44,15.44,0,0,1-11.42,4.74A16.18,16.18,0,0,1,33.77,52.66V41.53L63.07,62Zm3.68-10.15A17.08,17.08,0,0,1,65.75,56l-.29,1.51L33.77,35.38V23.63a15.42,15.42,0,0,1,4.74-11.41A15.44,15.44,0,0,1,49.92,7.47a15.48,15.48,0,0,1,11.42,4.75,15.46,15.46,0,0,1,4.73,11.41Z"/></svg>