<svg id="Camada_1" data-name="Camada 1" xmlns="http://www.w3.org/2000/svg" viewBox="0 0 100 100"><title>mudo</title><path d="M83.64,51.21v-2a3.64,3.64,0,0,0-1.11-2.63,3.75,3.75,0,0,0-6.38,2.63v2a27.86,27.86,0,0,1-.44,4.71l6.55,4.57A34,34,0,0,0,83.64,51.21Z"/><path d="M91.76,73l0,0L12.28,17.47l0,0a3.78,3.78,0,0,0-1.51-.32A3.68,3.68,0,0,0,7,20.83a3.57,3.57,0,0,0,1,2.51l0,0L31.19,39.54V51.21A18.78,18.78,0,0,0,49.92,69.94a18,18,0,0,0,13.23-5.5,21.12,21.12,0,0,0,1.42-1.6l6.13,4.28a24.8,24.8,0,0,1-2.25,2.62,25.26,25.26,0,0,1-18.53,7.69,25.26,25.26,0,0,1-18.53-7.69,25.27,25.27,0,0,1-7.7-18.53V49.08A3.81,3.81,0,0,0,20,45.33a3.81,3.81,0,0,0-3.75,3.75v2.13a32.53,32.53,0,0,0,8.63,22.51,32.74,32.74,0,0,0,21.34,11V97.5h7.49V84.69A32.67,32.67,0,0,0,75,73.72c.68-.75,1.28-1.52,1.86-2.3l9.74,6.79A3.7,3.7,0,0,0,93,75.69,3.6,3.6,0,0,0,91.76,73Z"/><path d="M68.65,21.24A18,18,0,0,0,63.15,8,18.64,18.64,0,0,0,36.69,8a18,18,0,0,0-5.5,13.23v3.59L68.65,51Z"/></svg>