<svg id="Camada_1" data-name="Camada 1" xmlns="http://www.w3.org/2000/svg" viewBox="0 0 100 100"><title>nao_visualizar_linha</title><path d="M16.76,22.57l7.4,7.4A62.51,62.51,0,0,0,2.92,49.2l-.42.69.33.74C3,50.89,15.09,76.7,50,76.7A60.12,60.12,0,0,0,68.21,74l7.29,7.29,3.88-3.88L20.64,18.69ZM36.39,42.21c0,.11,0,.22,0,.33A8.41,8.41,0,0,0,44.79,51h.34L57.51,63.32A15.67,15.67,0,0,1,35.9,41.71ZM31.34,50A17.84,17.84,0,0,0,59.05,64.87l6.68,6.68A58.1,58.1,0,0,1,50,73.65c-30,0-41.83-19.39-44-23.54A59.6,59.6,0,0,1,26.4,32.21l7.93,7.93A17.77,17.77,0,0,0,31.34,50Z"/><path d="M65.92,56.25a17.84,17.84,0,0,0-23-23l10.2,10.19c0-.3.05-.61.05-.93a8.4,8.4,0,0,0-6.09-8,15.91,15.91,0,0,1,2.09-.21A15.74,15.74,0,0,1,64.91,50a15.58,15.58,0,0,1-.68,4.56Z"/><path d="M97.08,49.2C96.92,48.94,80.82,23.3,50,23.3a53.2,53.2,0,0,0-14.91,2.12l2.48,2.48A50.29,50.29,0,0,1,50,26.35c26.27,0,41.25,19.75,44,23.75a45.17,45.17,0,0,1-17.27,17L79,69.28C92,61.64,97.09,50.8,97.17,50.63l.33-.74Z"/></svg>