<svg id="Camada_1" data-name="Camada 1" xmlns="http://www.w3.org/2000/svg" viewBox="0 0 100 100"><title>nome_usuario_perfil_linha</title><path d="M49.37,48.84A21.83,21.83,0,1,0,27.54,27,21.84,21.84,0,0,0,49.37,48.84m0-38.62A16.79,16.79,0,1,1,32.58,27,16.79,16.79,0,0,1,49.37,10.22"/><path d="M50.91,58.14l-1.54,0C23.9,58.16,3.17,68.08,2,80.66L2,94.82H97.92L98,80.68C96.86,68.1,76.38,58.14,50.91,58.14M7.14,90.07s0-7.39,0-7.61C7.16,71.7,26.09,63,49.63,63h1c23.52,0,42,8.72,42,19.48,0,.22,0,7.62,0,7.62Z"/></svg>