<svg id="Camada_1" data-name="Camada 1" xmlns="http://www.w3.org/2000/svg" viewBox="0 0 100 100"><title>notificacao_linha</title><path d="M92.76,84.33,84.92,53.2A34.21,34.21,0,0,0,60.58,20.58s-.23-.09-.23-.26v-2.6A10.24,10.24,0,0,0,50.12,7.5h-.18A10.29,10.29,0,0,0,39.66,17.78v2.39a.58.58,0,0,1-.46.54A34.55,34.55,0,0,0,15.08,53.45L7.24,84.33a2,2,0,0,0,1.93,2.48H42.84a7.35,7.35,0,0,0,14.32,0H90.83a2,2,0,0,0,1.93-2.48ZM59.41,24.39A30.23,30.23,0,0,1,80.94,53.45a2,2,0,0,0,.06.48l7.27,28.89H11.74L19,54.2a2.08,2.08,0,0,0,.07-.5A30.55,30.55,0,0,1,40.41,24.51a4.55,4.55,0,0,0,3.23-4.34V17.78a6.3,6.3,0,0,1,6.3-6.29h.18a6.24,6.24,0,0,1,6.24,6.23v2.6A4.26,4.26,0,0,0,59.41,24.39Z"/></svg>