<svg id="Camada_1" data-name="Camada 1" xmlns="http://www.w3.org/2000/svg" viewBox="0 0 100 100"><title>nuvem</title><path d="M36.16,72.65H23.65C11.39,72.64,2.5,64.16,2.5,52.48A21,21,0,0,1,20,31.33a29.32,29.32,0,0,1,58.45,1.35,19.82,19.82,0,0,1-.61,39.63H62.11V69h15.7a16.51,16.51,0,0,0-.13-33c-.17,0-.33,0-.49,0l-1.77.12-.27-1.76a26,26,0,0,0-52-1.51l-.07,1.38-1.38.18A17.8,17.8,0,0,0,5.82,52.48c0,9.76,7.5,16.84,17.83,16.84H36.16Z"/><rect x="48.84" y="36.85" width="2.33" height="58.16"/><path d="M60.87,49.55a1.26,1.26,0,0,1-.91-.39L50,38.66,40,49.16a1.25,1.25,0,0,1-1.81-1.71L48.48,36.64a2.17,2.17,0,0,1,3,0L61.77,47.45a1.25,1.25,0,0,1-.05,1.76A1.23,1.23,0,0,1,60.87,49.55Z"/></svg>