<svg id="Camada_1" data-name="Camada 1" xmlns="http://www.w3.org/2000/svg" viewBox="0 0 100 100"><defs><style>.cls-1{fill-rule:evenodd;}</style></defs><title>pin_ponto</title><path class="cls-1" d="M71.62,10.49a31.45,31.45,0,0,0-21.46-9,31.6,31.6,0,0,0-21.64,9A30.05,30.05,0,0,0,19.72,32c0,5.49,2.49,13.31,6,21.63,3.76,8.53,8.53,17.81,12.78,25.56l4.39,7.75.3.47c1,1.49,2,3.32,2.83,4.82l4.16,6.32,2.32-3.68L64.12,74.54c2.63-4.91,5.31-10.18,7.84-15.47C76.78,48.76,80.28,38.61,80.28,32a30.57,30.57,0,0,0-8.66-21.46M59.82,40.43a13.48,13.48,0,0,1-19.48,0,13.23,13.23,0,0,1-4.32-10,12.54,12.54,0,0,1,4.32-9.65,13.48,13.48,0,0,1,19.48,0,13.13,13.13,0,0,1,4.32,9.65,13.87,13.87,0,0,1-4.32,10"/></svg>