<svg id="Camada_1" data-name="Camada 1" xmlns="http://www.w3.org/2000/svg" viewBox="0 0 100 100"><defs><style>.cls-1{fill-rule:evenodd;}</style></defs><title>pin_linha</title><path class="cls-1" d="M50.17,13.42a17.83,17.83,0,0,0-12.71,5A18.78,18.78,0,0,0,32.4,30.86a19,19,0,0,0,5.06,12.71,17.87,17.87,0,0,0,12.71,5,17.14,17.14,0,0,0,12.39-5,17.61,17.61,0,0,0,5-12.71,17.4,17.4,0,0,0-5-12.39,17.1,17.1,0,0,0-12.39-5m9.44,27.21a12.64,12.64,0,0,1-9.44,4.08,12.78,12.78,0,0,1-9.62-4.08,13,13,0,0,1-4.23-9.77,12.29,12.29,0,0,1,4.23-9.46,12.81,12.81,0,0,1,9.62-4.07,12.66,12.66,0,0,1,9.44,4.07,12.83,12.83,0,0,1,4.25,9.46,13.54,13.54,0,0,1-4.25,9.77"/><path class="cls-1" d="M71.18,11.3a30.85,30.85,0,0,0-21-8.8A31,31,0,0,0,29,11.3a29.46,29.46,0,0,0-8.63,21c0,5.37,2.43,13,5.86,21.18,3.69,8.36,8.35,17.45,12.5,25L43,86.14l.3.45c1,1.46,2,3.25,2.77,4.72l4.08,6.19,2.26-3.59L63.83,74c2.58-4.8,5.2-10,7.68-15.14,4.72-10.1,8.14-20,8.14-26.56a30,30,0,0,0-8.47-21M67.93,57.42c-3.21,6.66-17.76,32.75-17.76,32.75S34.35,62.31,29.79,52c-3.24-7.66-5.54-15-5.54-19.71A25.88,25.88,0,0,1,50.17,6.58a25.41,25.41,0,0,1,18.09,7.49,26.36,26.36,0,0,1,7.65,18.26c0,5.86-3.59,15.31-8,25.09"/></svg>