<svg id="Camada_1" data-name="Camada 1" xmlns="http://www.w3.org/2000/svg" viewBox="0 0 100 100"><title>rede_linha</title><path d="M50,98A48,48,0,1,1,98,50,48.05,48.05,0,0,1,50,98ZM50,5A45,45,0,1,0,95,50,45.05,45.05,0,0,0,50,5Z"/><path d="M50,98C35.87,98,24.81,76.92,24.81,50S35.87,2,50,2,75.19,23.08,75.19,50,64.13,98,50,98ZM50,5C37.76,5,27.81,25.19,27.81,50S37.76,95,50,95,72.19,74.81,72.19,50,62.24,5,50,5Z"/><rect x="48.5" y="3.5" width="3" height="92.92"/><path d="M50,54.51c-29.51,0-46.14-4.16-46.83-4.34l.74-2.9c.17,0,17,4.24,46.09,4.24,30.76,0,45.9-4.19,46.05-4.23l.82,2.88C96.25,50.34,81.25,54.51,50,54.51Z"/></svg>