<svg id="Camada_1" data-name="Camada 1" xmlns="http://www.w3.org/2000/svg" viewBox="0 0 100 100"><title>rede_global</title><path d="M50,1C24.22,1,3.25,23,3.25,50S24.22,99,50,99,96.75,77,96.75,50,75.77,1,50,1M40.84,6.4C37.1,9.53,32,15.26,28.39,24.84c-5.55-1.83-8.45-4-9.62-5A42,42,0,0,1,40.84,6.4M16.06,23.27A32.18,32.18,0,0,0,27,29a74,74,0,0,0-2.7,18.86H7.67a46,46,0,0,1,8.39-24.56m-.29,53a45.88,45.88,0,0,1-8.1-24.12H24.36a94.73,94.73,0,0,0,2.8,18.16,47.58,47.58,0,0,0-11.39,6m2.65,3.46a44.47,44.47,0,0,1,10-5.23c2.25,6.9,5.74,13.85,11.13,18.76A42.08,42.08,0,0,1,18.42,79.75m29.3,13.84c-7.8-3.74-12.4-12.08-15.12-20.47a61.81,61.81,0,0,1,15.12-2.44Zm0-27.25a66.52,66.52,0,0,0-16.35,2.59,93.43,93.43,0,0,1-2.62-16.76h19Zm0-18.51h-19a70.83,70.83,0,0,1,2.53-17.68A80.78,80.78,0,0,0,47.72,32.2Zm0-20A77.18,77.18,0,0,1,32.6,26C38,11.91,46.91,7.37,47.43,7.12L46.65,5.5c.35,0,.72-.08,1.07-.1Zm32.53-9.09c-.76,1.13-3.26,4.08-9.53,6.32-3.69-10-9.13-15.87-12.91-19A41.77,41.77,0,0,1,80.25,18.76M52.26,5.4l.13,0-.13.24Zm0,2.11c2.27,1.38,9.6,6.58,14.2,18.82a66.5,66.5,0,0,1-14.2,1.56Zm0,24.73a70.08,70.08,0,0,0,15.57-1.78,69.86,69.86,0,0,1,2.48,17.37H52.26Zm0,19.93h18a93.24,93.24,0,0,1-2.56,16.47,58.72,58.72,0,0,0-15.43-2.32Zm0,40.93V70.66a54.61,54.61,0,0,1,14.22,2.18C63.89,81,59.54,89.1,52.26,93.1m6.79.52c5.68-5,9.31-12.16,11.61-19.28a31.33,31.33,0,0,1,10.1,6.33,41.93,41.93,0,0,1-21.71,13M83.52,77.27A36,36,0,0,0,71.89,70.1a96.74,96.74,0,0,0,2.75-17.93H92.32a45.79,45.79,0,0,1-8.8,25.1m8.8-29.44H74.68A74.68,74.68,0,0,0,72,29.21c6.16-2.18,9.44-5.07,11.07-7a45.69,45.69,0,0,1,9.21,25.66"/></svg>