<svg id="Camada_1" data-name="Camada 1" xmlns="http://www.w3.org/2000/svg" viewBox="0 0 100 100"><title>rede_tronco</title><path d="M59.73,45.23,79.51,31.52a.91.91,0,0,1,.51-.19.89.89,0,0,1,.58.15,8.05,8.05,0,0,0,1.24.76A6.83,6.83,0,1,0,87.48,19.8a6.79,6.79,0,0,0-9.37,8h0a1,1,0,0,1,0,.7.9.9,0,0,1-.34.38l-20,13.85a1.82,1.82,0,0,1-.29.08.92.92,0,0,1-.68-.2s0,0-.08,0l0-.08c-.07,0-.08-.06-.1-.08-.27-.22-.55-.44-.83-.63v0l-.09-.05A10.09,10.09,0,0,0,53,40.45l-.05,0c-.25-.07-.53-.14-.75-.22h-.07c-.09,0-.13-.08-.2-.11a.87.87,0,0,1-.22-.26,1.64,1.64,0,0,1-.14-.33V15.21a1.74,1.74,0,0,1,.14-.48,1.08,1.08,0,0,1,.56-.45h0a6.76,6.76,0,0,0,2.79-11,2.06,2.06,0,0,0-.16-.15,5.68,5.68,0,0,0-.67-.63,3.59,3.59,0,0,1-.5-.37c-.09,0-.16-.11-.25-.15a1.54,1.54,0,0,0-.23-.14c-.28-.15-.56-.26-.86-.39a2.15,2.15,0,0,0-.27-.1,6.8,6.8,0,0,0-8,9.94c.12.22.28.39.41.59h0a6,6,0,0,0,.76.83l.28.27a3.66,3.66,0,0,0,.46.32,4.16,4.16,0,0,0,.51.41,7.88,7.88,0,0,0,1.33.6c.07,0,.11.08.19.12a.52.52,0,0,1,.21.23,1.49,1.49,0,0,1,.13.47V39.5a1.2,1.2,0,0,1-.13.32,1,1,0,0,1-.5.39,10,10,0,0,0-3.09,1.33H44.6l-.08,0c-.05.05-.15.09-.22.15a1.64,1.64,0,0,0-.18.16,9.5,9.5,0,0,0-.79.62s-.07.05-.08.08a1.36,1.36,0,0,1-.67.19.78.78,0,0,1-.33-.09l-20-13.84a1.37,1.37,0,0,1-.34-.38,1.15,1.15,0,0,1,0-.71v0a6.79,6.79,0,1,0-3.73,4.44,7.14,7.14,0,0,0,1.26-.73,1,1,0,0,1,.58-.16.84.84,0,0,1,.5.19l19.79,13.7a1.26,1.26,0,0,1,.36.4.84.84,0,0,1,0,.62,2.82,2.82,0,0,1-.07.31c-.07.19-.12.36-.19.53a.53.53,0,0,0,0,.17,1.71,1.71,0,0,0-.09.3c0,.22-.1.44-.14.67a2.63,2.63,0,0,0-.06.5.65.65,0,0,0,0,.16,1.86,1.86,0,0,0-.05.27c0,.25,0,.54,0,.82h0V50c0,.12,0,.22,0,.35s0,.06,0,.13h0a10,10,0,0,0,.09,1.08c.07.29.1.6.19.9s.13.44.2.63.15.45.23.66a.82.82,0,0,1-.43,1L20.52,68.42a1,1,0,0,1-.51.22,1,1,0,0,1-.57-.16,7.37,7.37,0,0,0-1.25-.72,6.79,6.79,0,1,0,3.73,4.38h0a.74.74,0,0,1,0-.69.78.78,0,0,1,.33-.37l20-13.87.3-.08a1.08,1.08,0,0,1,.57.17,10,10,0,0,0,4.67,2.49c.07,0,.12.08.21.12a.8.8,0,0,1,.21.25,1.08,1.08,0,0,1,.13.32V84.77a1.35,1.35,0,0,1-.13.48,1,1,0,0,1-.58.47h0A6.7,6.7,0,0,0,44.1,88.6a6.88,6.88,0,0,0,.79,8.1c.08.06.1.11.18.15a5.13,5.13,0,0,0,.68.63c.16.11.3.24.48.35a2.29,2.29,0,0,1,.23.17.82.82,0,0,0,.25.11c.28.16.57.29.86.42.09,0,.19,0,.28.09a6.71,6.71,0,0,0,5.66-.57,6.86,6.86,0,0,0,2.39-9.37c-.12-.21-.29-.39-.41-.58h0a8.33,8.33,0,0,0-.73-.83c-.1-.09-.19-.19-.28-.28a5.46,5.46,0,0,0-.47-.31,4.73,4.73,0,0,0-.53-.41,9.76,9.76,0,0,0-1.31-.62.32.32,0,0,1-.2-.1.52.52,0,0,1-.21-.23,2,2,0,0,1-.14-.47V60.5a1.46,1.46,0,0,1,.14-.31,1.17,1.17,0,0,1,.52-.42,9.44,9.44,0,0,0,2.55-1s.12-.06.17-.09c.22-.15.42-.25.62-.39,0-.05.09-.05.11-.08s.08-.07.09-.07c.37-.27.68-.52,1-.82a.86.86,0,0,1,.58-.14.52.52,0,0,1,.3.08l20,13.82a1,1,0,0,1,.38,1.1v0a6.81,6.81,0,1,0,12.78-1,6.84,6.84,0,0,0-9.05-3.39,6,6,0,0,0-1.25.74.91.91,0,0,1-1.09,0L59.7,54.78a1,1,0,0,1-.37-.4,1.36,1.36,0,0,1-.08-.62,5.26,5.26,0,0,0,.26-.59c.06-.23.12-.46.19-.65s.12-.61.19-.92.08-.71.1-1.09h0v-.1A2.42,2.42,0,0,0,60,50h0V50c0-.27,0-.53,0-.81a2.8,2.8,0,0,1-.06-.28v-.19a3.58,3.58,0,0,0-.09-.48,4.16,4.16,0,0,0-.13-.67c0-.09-.06-.19-.08-.28a.84.84,0,0,0,0-.17l-.17-.55a1.43,1.43,0,0,1-.09-.27.88.88,0,0,1,0-.64A.87.87,0,0,1,59.73,45.23Z"/></svg>