<svg id="Camada_1" data-name="Camada 1" xmlns="http://www.w3.org/2000/svg" viewBox="0 0 100 100"><title>roteador</title><path d="M96.61,50.21H91.52V69.94a.82.82,0,0,1-.73.88H8.22a.82.82,0,0,1-.74-.88V51.08c.52-.08.52-.08.58,0V69.94c0,.11.06.19.16.19H90.79a.18.18,0,0,0,.16-.19V50.21H13.67V24.73a2.81,2.81,0,0,0-5.62,0V50.21H3.39A1.39,1.39,0,0,0,2,51.6V76.69a1.39,1.39,0,0,0,1.39,1.39H96.61A1.39,1.39,0,0,0,98,76.69V51.6A1.39,1.39,0,0,0,96.61,50.21Zm-28.39,11a.87.87,0,0,1,.88-.87H80.58a.87.87,0,0,1,.87.87v.57a.87.87,0,0,1-.87.87H69.1a.87.87,0,0,1-.88-.87Z"/></svg>