<svg id="Camada_1" data-name="Camada 1" xmlns="http://www.w3.org/2000/svg" viewBox="0 0 100 100"><title>roteador_linha</title><path d="M96.13,49.21H14.55V25A3.28,3.28,0,0,0,8,25V49.21H3.88A2.38,2.38,0,0,0,1.5,51.58V76.41a2.39,2.39,0,0,0,2.38,2.38H96.13a2.38,2.38,0,0,0,2.37-2.38V51.58A2.38,2.38,0,0,0,96.13,49.21ZM95,52.74V75.26H5V52.74H8.22V70.88a1.23,1.23,0,0,0,1.23,1.23H90.17a1.22,1.22,0,0,0,1.22-1.23V52.74Zm-5.14,17.8h-80V52.74h80ZM10.39,25a.88.88,0,0,1,1.76,0V49.21H10.41Z"/><path d="M68.07,61.05h14a1.05,1.05,0,0,0,1.06-1v-.69a1.06,1.06,0,0,0-1.06-1.07h-14A1.06,1.06,0,0,0,67,59.31V60A1.06,1.06,0,0,0,68.07,61.05Zm-.23-1.74a.23.23,0,0,1,.23-.23h14a.22.22,0,0,1,.22.23V60a.22.22,0,0,1-.22.22h-14a.23.23,0,0,1-.23-.22Z"/></svg>