<svg id="Camada_1" data-name="Camada 1" xmlns="http://www.w3.org/2000/svg" viewBox="0 0 100 100"><title>sinal</title><path d="M93.38,60.05H31V30.58a4,4,0,1,0-2.91,0V60.05H6.62a3.44,3.44,0,0,0-3.44,3.44V95.07A3.44,3.44,0,0,0,6.62,98.5H93.38a3.44,3.44,0,0,0,3.44-3.43V63.49A3.45,3.45,0,0,0,93.38,60.05Z"/><path d="M66,27.67A28.22,28.22,0,0,1,54.81,49.58a1.46,1.46,0,0,0-.27,2.05,1.49,1.49,0,0,0,1.16.56,1.39,1.39,0,0,0,.88-.31A31.1,31.1,0,0,0,68.9,27.71,32.91,32.91,0,0,0,56.6,1.83a1.47,1.47,0,0,0-2.06.2,1.45,1.45,0,0,0,.21,2.05A30,30,0,0,1,66,27.67Z"/><path d="M49.7,27.35a16.84,16.84,0,0,1-6.15,12.79,1.46,1.46,0,0,0,.92,2.59,1.48,1.48,0,0,0,.93-.34,19.72,19.72,0,0,0,7.21-15,20.92,20.92,0,0,0-7.19-16.08,1.46,1.46,0,0,0-1.92,2.19A18.08,18.08,0,0,1,49.7,27.35Z"/></svg>