<svg id="Camada_1" data-name="Camada 1" xmlns="http://www.w3.org/2000/svg" viewBox="0 0 100 100"><title>sinal_linha</title><path d="M92.49,59.09H32.12V31.45a4.69,4.69,0,1,0-4.36,0V59.09H7.51a4.13,4.13,0,0,0-4.12,4.12V94.13a4.13,4.13,0,0,0,4.12,4.12h85a4.13,4.13,0,0,0,4.12-4.12V63.21A4.13,4.13,0,0,0,92.49,59.09Zm-.24,4.36V93.9H7.75V63.45Z"/><path d="M55.58,52.14a1.43,1.43,0,0,1-.87-2.56A27.61,27.61,0,0,0,65.65,28.13,29.35,29.35,0,0,0,54.65,5a1.43,1.43,0,1,1,1.82-2.21,32.24,32.24,0,0,1,12,25.35A30.48,30.48,0,0,1,56.45,51.84,1.37,1.37,0,0,1,55.58,52.14Z"/><path d="M44.58,42.87a1.43,1.43,0,0,1-.89-2.53,16.48,16.48,0,0,0,6-12.53,17.6,17.6,0,0,0-6.07-13.54,1.43,1.43,0,0,1-.13-2,1.42,1.42,0,0,1,2-.14,20.5,20.5,0,0,1,7.05,15.74,19.38,19.38,0,0,1-7.07,14.69A1.44,1.44,0,0,1,44.58,42.87Z"/></svg>