<svg id="Camada_1" data-name="Camada 1" xmlns="http://www.w3.org/2000/svg" viewBox="0 0 100 100"><title>tronco_linha</title><path d="M59.43,45.38,78.61,32.09a.85.85,0,0,1,.49-.19.88.88,0,0,1,.56.15,10.12,10.12,0,0,0,1.2.74,6.62,6.62,0,1,0,5.48-12.06,6.59,6.59,0,0,0-9.09,7.75h0a.92.92,0,0,1,0,.67.83.83,0,0,1-.32.37L57.49,43a1.82,1.82,0,0,1-.29.08.85.85,0,0,1-.65-.19.08.08,0,0,0-.08,0l0-.07c-.07,0-.08-.06-.1-.07-.26-.22-.54-.44-.81-.63h0a.13.13,0,0,0-.09,0,9.27,9.27,0,0,0-2.5-1.24l0,0-.73-.2h-.07c-.08,0-.13-.09-.19-.11a.93.93,0,0,1-.21-.25,1.92,1.92,0,0,1-.14-.33V16.27a1.53,1.53,0,0,1,.14-.46,1,1,0,0,1,.54-.44h0a6.59,6.59,0,0,0,3.49-2.8,6.66,6.66,0,0,0-.79-7.85l-.15-.14a5.25,5.25,0,0,0-.65-.6,3.53,3.53,0,0,1-.48-.36c-.09,0-.16-.11-.25-.15a1.42,1.42,0,0,0-.22-.13A8.93,8.93,0,0,0,52.35,3l-.26-.09a6.6,6.6,0,0,0-7.81,9.64c.11.21.28.37.4.57h0a5.6,5.6,0,0,0,.73.8c.09.09.18.16.27.26a3.25,3.25,0,0,0,.45.32,4.66,4.66,0,0,0,.49.39,8.39,8.39,0,0,0,1.3.59c.07,0,.1.07.18.11a.43.43,0,0,1,.2.22,1.25,1.25,0,0,1,.12.46V39.82a.76.76,0,0,1-.12.3.94.94,0,0,1-.48.4,9.64,9.64,0,0,0-3,1.28h0l-.08,0s-.15.09-.22.15a.65.65,0,0,0-.17.15c-.28.21-.55.4-.77.6l-.08.07a1.25,1.25,0,0,1-.64.19.89.89,0,0,1-.32-.08L23.11,29.5a1.17,1.17,0,0,1-.33-.37,1.06,1.06,0,0,1,0-.68v0A6.55,6.55,0,0,0,22.41,24a6.61,6.61,0,1,0-3.29,8.75,6.35,6.35,0,0,0,1.22-.7,1,1,0,0,1,.57-.16.84.84,0,0,1,.48.19L40.58,45.33a1.21,1.21,0,0,1,.35.39.9.9,0,0,1,0,.6c0,.11,0,.18-.07.3s-.12.35-.19.52a.94.94,0,0,0,0,.16,2.45,2.45,0,0,0-.08.29c-.05.22-.1.43-.14.65a2.43,2.43,0,0,0-.06.49.54.54,0,0,0,0,.15,1.64,1.64,0,0,0,0,.27c0,.23,0,.51,0,.78h0v.4c0,.06,0,.06,0,.13h0c0,.36.06.67.09,1s.1.59.19.88.12.42.19.61.15.43.23.63a.94.94,0,0,1-.06.57.83.83,0,0,1-.36.38L21.42,67.86a.85.85,0,0,1-1.05.06,6.35,6.35,0,0,0-1.21-.7,6.61,6.61,0,0,0-8.79,3.23,6.7,6.7,0,0,0,3.29,8.8,6.63,6.63,0,0,0,9.12-7.78h0a.73.73,0,0,1,0-.67.77.77,0,0,1,.33-.36L42.53,57l.29-.08a1.24,1.24,0,0,1,.55.16,9.58,9.58,0,0,0,4.52,2.42c.07,0,.13.08.21.12a.63.63,0,0,1,.2.24.78.78,0,0,1,.12.32V83.71a1.16,1.16,0,0,1-.12.47.91.91,0,0,1-.56.45h0a6.51,6.51,0,0,0-3.46,2.79,6.66,6.66,0,0,0,.77,7.85c.08.07.09.11.17.15a4.21,4.21,0,0,0,.66.6,4.1,4.1,0,0,0,.47.35c.09,0,.15.12.22.16s.15.07.24.11a6.46,6.46,0,0,0,.84.4,2.77,2.77,0,0,1,.26.1,6.54,6.54,0,0,0,5.49-.56,6.64,6.64,0,0,0,2.32-9.08c-.12-.2-.28-.37-.4-.56h0a9.44,9.44,0,0,0-.72-.81l-.27-.27a4.06,4.06,0,0,0-.46-.3,5.84,5.84,0,0,0-.5-.4,11.25,11.25,0,0,0-1.27-.6.28.28,0,0,1-.2-.1.51.51,0,0,1-.2-.21,2.12,2.12,0,0,1-.14-.46V60.19a1.55,1.55,0,0,1,.14-.32,1,1,0,0,1,.5-.39,9.88,9.88,0,0,0,2.48-.95c0-.06.11-.06.15-.1.22-.14.41-.23.61-.37,0-.05.09-.05.11-.08s.07-.06.09-.06c.35-.27.65-.51,1-.8a.75.75,0,0,1,.56-.13.46.46,0,0,1,.29.06l19.39,13.4a1.1,1.1,0,0,1,.31.37,1,1,0,0,1,0,.71h0a6.6,6.6,0,1,0,12.39-1,6.63,6.63,0,0,0-8.77-3.29,6,6,0,0,0-1.21.72,1,1,0,0,1-.58.16.89.89,0,0,1-.48-.19L59.4,54.64a1.09,1.09,0,0,1-.35-.39,1.28,1.28,0,0,1-.08-.6c.09-.19.17-.37.25-.57s.12-.45.18-.64.12-.58.19-.88.07-.69.09-1.06h0a.46.46,0,0,0,0-.1c0-.13,0-.25,0-.37h0V50c0-.26,0-.51,0-.78a1.47,1.47,0,0,1-.06-.27,1.42,1.42,0,0,0,0-.19,2.23,2.23,0,0,0-.08-.46,3.94,3.94,0,0,0-.13-.65c0-.09-.06-.19-.07-.27s0-.11,0-.17l-.17-.53a1.29,1.29,0,0,1-.08-.26.81.81,0,0,1,0-.63A.9.9,0,0,1,59.43,45.38ZM80.09,25.13A3.88,3.88,0,1,1,82,30.28,3.86,3.86,0,0,1,80.09,25.13ZM18,30.23a3.79,3.79,0,0,1-5.08-1.91A3.87,3.87,0,1,1,18,30.23Zm2,44.58A3.87,3.87,0,1,1,18,69.7,3.83,3.83,0,0,1,19.93,74.81ZM48.39,12.65l-.19-.07c-.09-.07-.2-.13-.31-.2a2.81,2.81,0,0,1-.44-.33s-.07,0-.07-.06A3.88,3.88,0,0,1,51.3,5.5h0a2.45,2.45,0,0,1,.57.27l.24.13a1.18,1.18,0,0,0,.25.19,4.35,4.35,0,0,1,.92,1,3.87,3.87,0,0,1-4.91,5.53Zm3.2,74.68a.84.84,0,0,0,.19.09,1.58,1.58,0,0,0,.32.19c.16.09.28.22.44.33s0,0,.09.07a3.91,3.91,0,0,1,.67,4.81,3.85,3.85,0,0,1-4.63,1.68h0a2.7,2.7,0,0,1-.55-.26l-.28-.15a1.8,1.8,0,0,1-.2-.18,3.48,3.48,0,0,1-.92-1A3.89,3.89,0,0,1,48,87.55,3.93,3.93,0,0,1,51.59,87.33Zm4.5-34.75a.13.13,0,0,1,0,.05,6.75,6.75,0,0,1-.64,1.09c0,.07-.09.11-.13.21-.24.27-.43.54-.67.77s-.31.25-.47.41a5.31,5.31,0,0,1-.51.4c-.26.17-.49.27-.75.41a2.84,2.84,0,0,0-.39.2,10.21,10.21,0,0,1-1,.32.77.77,0,0,0-.24.06c-.28,0-.56.06-.83.09l-.42,0a3.9,3.9,0,0,1-.78-.07,3,3,0,0,0-.52,0l-.82-.23c-.11,0-.29-.08-.46-.14a4,4,0,0,1-.67-.37,1.82,1.82,0,0,1-.46-.25,5.56,5.56,0,0,1-.57-.42c-.16-.14-.29-.25-.44-.36s-.43-.5-.65-.77c0-.07-.1-.15-.15-.24a6.29,6.29,0,0,1-.61-1.08s0,0,0,0a6.64,6.64,0,0,1,.43-6.06.62.62,0,0,0,.06-.14,4.36,4.36,0,0,1,.59-.74,1.22,1.22,0,0,1,.25-.31,5.15,5.15,0,0,1,.56-.5A6.71,6.71,0,0,1,50,43.37a7.2,7.2,0,0,1,2.49.48l.34.18a2.93,2.93,0,0,1,.58.31c.23.13.43.28.67.44s.31.24.45.39a2.08,2.08,0,0,1,.2.15,2.19,2.19,0,0,1,.23.33,3.88,3.88,0,0,1,.59.72.61.61,0,0,1,.06.13A6.73,6.73,0,0,1,56.09,52.58ZM82,69.74a3.88,3.88,0,1,1-1.92,5.15A3.88,3.88,0,0,1,82,69.74Z"/></svg>