<svg id="Camada_1" data-name="Camada 1" xmlns="http://www.w3.org/2000/svg" viewBox="0 0 100 100"><title>usb</title><path d="M82.91,39.3,95,27.21,72.79,5,60.7,17.09l-6.23-6.24L9.77,55.56a16.31,16.31,0,0,0,0,23L21.39,90.23a16.31,16.31,0,0,0,23,0l44.71-44.7ZM72.79,9.5,90.5,27.21l-9.84,9.84L63,19.34ZM41.25,87.05a11.81,11.81,0,0,1-16.68,0L13,75.42a11.81,11.81,0,0,1,0-16.68L54.47,17.23l28.3,28.3Z"/><rect x="70.83" y="18.59" width="4.67" height="3.18" transform="translate(7.19 57.69) rotate(-45.04)"/><rect x="77.48" y="25.25" width="4.67" height="3.18" transform="translate(4.41 64.31) rotate(-45)"/></svg>