<svg id="Camada_1" data-name="Camada 1" xmlns="http://www.w3.org/2000/svg" viewBox="0 0 100 100"><defs><style>.cls-1{fill:none;}</style></defs><title>visualizar_linha</title><path class="cls-1" d="M50,26.35c-26.29,0-41.27,19.78-44,23.76,2.19,4.15,14,23.54,44,23.54,29.69,0,41.82-19.49,44-23.55C91.26,46.1,76.27,26.35,50,26.35Zm0,41.5A17.85,17.85,0,1,1,67.85,50,17.87,17.87,0,0,1,50,67.85Z"/><path class="cls-1" d="M50,34.28a15.93,15.93,0,0,0-2.08.21,8.42,8.42,0,1,1-10.53,6.22A15.56,15.56,0,0,0,34.28,50,15.72,15.72,0,1,0,50,34.28Z"/><path d="M97.08,49.2C96.92,48.94,80.82,23.3,50,23.3S3.08,48.94,2.92,49.2l-.42.69.33.74C3,50.89,15.09,76.7,50,76.7S97.05,50.89,97.17,50.63l.33-.74ZM50,73.65c-30,0-41.83-19.39-44-23.54,2.75-4,17.73-23.76,44-23.76S91.25,46.1,94,50.1C91.81,54.16,79.69,73.65,50,73.65Z"/><path d="M50,32.15A17.85,17.85,0,1,0,67.85,50,17.87,17.87,0,0,0,50,32.15Zm-4.37,4.72a5.84,5.84,0,1,1-5.84,5.84A5.83,5.83,0,0,1,45.63,36.87ZM50,65.72A15.74,15.74,0,0,1,34.28,50a15.56,15.56,0,0,1,3.11-9.29,8.41,8.41,0,1,0,10.53-6.22A15.93,15.93,0,0,1,50,34.28a15.72,15.72,0,0,1,0,31.44Z"/></svg>