<svg id="Camada_1" data-name="Camada 1" xmlns="http://www.w3.org/2000/svg" viewBox="0 0 100 100"><title>voz</title><path d="M82.23,47.18a3.7,3.7,0,0,0-6.3,2.6v1.95c-.77,10-5.43,15.7-5.43,15.7a28,28,0,0,1-2.18,2.62A25,25,0,0,1,50,77.66a25,25,0,0,1-18.31-7.61,24.94,24.94,0,0,1-7.61-18.32V49.64A3.68,3.68,0,0,0,17.77,47a3.57,3.57,0,0,0-1.1,2.61v2.09A32.21,32.21,0,0,0,25.2,74,32.36,32.36,0,0,0,46.3,84.83V97.5h7.4V84.83A32.31,32.31,0,0,0,74.8,74c.67-.75,1.17-1.56,1.75-2.33a36.14,36.14,0,0,0,3.74-6.15c1.66-4.36,3-8.79,3-13.78V49.78A3.56,3.56,0,0,0,82.23,47.18Z"/><path d="M50,73.76a20,20,0,0,0,20-20V22.54a20,20,0,0,0-40.09,0V53.72A20,20,0,0,0,50,73.76Z"/></svg>