<svg id="Camada_1" data-name="Camada 1" xmlns="http://www.w3.org/2000/svg" viewBox="0 0 100 100"><title>wi-fi</title><path d="M50,73.39a7.82,7.82,0,1,0,7.8,7.81A7.83,7.83,0,0,0,50,73.39Z"/><path d="M97.83,34.49A59.5,59.5,0,0,0,51.66,11C32.77,10.7,14.8,19.27,2.24,34.45a3.24,3.24,0,0,0,2.5,5.3,3.22,3.22,0,0,0,2.49-1.17C18.54,24.9,34.73,17.21,51.56,17.44a53.08,53.08,0,0,1,41.15,21,3.2,3.2,0,0,0,2.15,1.24A3.16,3.16,0,0,0,97.25,39,3.25,3.25,0,0,0,97.83,34.49Z"/><path d="M51.13,32.58A42.36,42.36,0,0,0,18.56,47.14a3.24,3.24,0,0,0,4.87,4.27A35.75,35.75,0,0,1,51,39,33.56,33.56,0,0,1,76.51,51.3a3.24,3.24,0,0,0,4.55.44,3.22,3.22,0,0,0,.44-4.54A40,40,0,0,0,51.13,32.58Z"/><path d="M50.68,52h-.42a27.31,27.31,0,0,0-21,10.12,3.23,3.23,0,0,0,2.48,5.29,3.21,3.21,0,0,0,2.49-1.16,20.59,20.59,0,0,1,16.33-7.79,19.52,19.52,0,0,1,15.09,7.68,3.19,3.19,0,0,0,2.15,1.23,3.24,3.24,0,0,0,3-5.19A25.91,25.91,0,0,0,50.68,52Z"/></svg>