<svg id="Camada_1" data-name="Camada 1" xmlns="http://www.w3.org/2000/svg" viewBox="0 0 100 100"><title>wifi_linha</title><path d="M50,74.39a6.82,6.82,0,1,1-6.82,6.81A6.8,6.8,0,0,1,50,74.39"/><path d="M4.74,38.74a2.15,2.15,0,0,1-1.42-.5A2.23,2.23,0,0,1,3,35.09c12.41-15,30.15-23.38,48.63-23.1A58.45,58.45,0,0,1,97,35.11a2.24,2.24,0,0,1-3.54,2.73A54,54,0,0,0,51.57,16.45C34.41,16.19,18,24,6.46,37.94a2.24,2.24,0,0,1-1.72.8"/><path d="M21,51.5a2.23,2.23,0,0,1-1.68-3.71,41.29,41.29,0,0,1,31.8-14.21A39,39,0,0,1,80.73,47.83a2.23,2.23,0,0,1-3.45,2.84A34.59,34.59,0,0,0,51,38a36.81,36.81,0,0,0-28.36,12.7A2.2,2.2,0,0,1,21,51.5"/><path d="M31.77,66.43a2.2,2.2,0,0,1-1.43-.52,2.23,2.23,0,0,1-.28-3.14A26.27,26.27,0,0,1,50.26,53h.42A24.91,24.91,0,0,1,70,62.8a2.23,2.23,0,1,1-3.53,2.74,20.49,20.49,0,0,0-15.86-8.07,21.65,21.65,0,0,0-17.12,8.15,2.24,2.24,0,0,1-1.72.81"/></svg>